# xmcd CD database file
#
# Track frame offsets:
#	150
#	11182
#	23819
#	38300
#	107699
#	159190
#	211779
#	249560
#	263643
#	286523
#
# Disc length: 4129 seconds
#
# Revision: 0
# Processed by: cddbd v1.5.2PL0 Copyright (c) Steve Scherf et al.
# Submitted via: CDex 1.51
#
DISCID=6e101f0a
DTITLE=Big Band Era - CD04(Duke Ellington and His Orchestra)
DYEAR=2005
DGENRE=Jazz
TTITLE0=Park At 106th
TTITLE1=Snibor
TTITLE2=Great Times
TTITLE3=Mood Indigo
TTITLE4=Sophisticated Lady
TTITLE5=Tattooed Bride
TTITLE6=Solitude
TTITLE7=Brown Betty
TTITLE8=Stompin' At The Savoy
TTITLE9=Black And Tan Fantasy
EXTD=YEAR: 2005
EXTT0=
EXTT1=
EXTT2=
EXTT3=
EXTT4=
EXTT5=
EXTT6=
EXTT7=
EXTT8=
EXTT9=
PLAYORDER=
